<svg width="25" height="20" viewBox="0 0 25 20" fill="none" xmlns="http://www.w3.org/2000/svg">
<rect width="5" height="5" transform="matrix(-4.37114e-08 -1 -1 4.37114e-08 25 15)" fill="white"/>
<rect width="5" height="5" transform="matrix(-4.37114e-08 -1 -1 4.37114e-08 20 10)" fill="white"/>
<rect width="5" height="5" transform="matrix(-4.37114e-08 -1 -1 4.37114e-08 15 5)" fill="white"/>
<rect width="5" height="5" transform="matrix(-4.37114e-08 -1 -1 4.37114e-08 15 20)" fill="white"/>
<rect width="5" height="5" transform="matrix(-4.37114e-08 -1 -1 4.37114e-08 10 10)" fill="white"/>
<rect width="5" height="5" transform="matrix(-4.37114e-08 -1 -1 4.37114e-08 5 15)" fill="white"/>
</svg>
