<svg width="90" height="49" viewBox="0 0 90 49" fill="none" xmlns="http://www.w3.org/2000/svg">
<path d="M39.2207 47.6562C39.2207 46.787 40.1425 46.1772 40.9932 46.4756C41.3243 46.5988 41.4932 46.7608 41.4932 46.9619C41.4867 47.1043 41.4801 47.1174 41.4219 47.0205C41.305 46.813 40.8183 46.5793 40.5195 46.5791C39.9221 46.5791 39.415 47.0982 39.415 47.708C39.4151 48.071 39.5322 48.3174 39.8047 48.5508C40.2592 48.927 40.8046 48.9206 41.2656 48.5186L41.4932 48.3174V48.4863C41.493 48.7393 41.0058 48.999 40.5254 48.999C40.11 48.999 39.8631 48.8885 39.5645 48.5771C39.3048 48.3048 39.2208 48.0841 39.2207 47.6562ZM51.2793 44.9121C51.8442 44.6787 52.4937 44.6852 53.0391 44.9316C53.4999 45.1329 53.9806 45.6388 54.1494 46.0928C54.5452 47.1501 54.09 48.2916 53.0771 48.791C52.7073 48.9725 52.5837 49.0055 52.1553 48.999C51.4997 48.999 51.0909 48.8233 50.6494 48.3564C50.1819 47.8635 50.0391 47.5132 50.0391 46.8711C50.0391 46.469 50.0707 46.274 50.1875 46.0146C50.3628 45.6254 50.9157 45.0678 51.2793 44.9121ZM42.6621 46.4883C42.9803 46.3521 43.4156 46.3583 43.7402 46.5205C44.266 46.7734 44.2722 46.7541 43.3115 47.7139L42.4414 48.584L42.7334 48.7129C42.8889 48.7841 43.0638 48.8493 43.1162 48.8496C43.35 48.8496 43.7209 48.6998 43.9287 48.5117C44.1294 48.3436 44.1552 48.3306 44.1553 48.4404C44.1553 48.7258 43.6946 48.9795 43.1816 48.9795C42.7661 48.9795 42.5516 48.8945 42.2529 48.6025C41.5844 47.9538 41.7986 46.8645 42.6621 46.4883ZM56.0967 45.2227C56.4538 44.7232 57.0646 44.5939 57.584 44.9053C57.7009 44.9766 57.8439 45.126 57.9023 45.2363C58.0516 45.5283 58.0451 46.0148 57.8828 46.2354L57.7461 46.417L57.9346 46.5723C58.3306 46.8966 58.4932 47.5453 58.3115 48.0967C58.2206 48.3756 57.7592 48.8038 57.4346 48.9141C57.0711 49.0373 56.4743 48.9597 56.1689 48.7588C55.8832 48.5707 55.6161 48.1553 55.5576 47.792C55.5187 47.5716 55.526 47.546 55.6299 47.5654C55.7076 47.5786 55.7592 47.6629 55.7852 47.8184C55.8762 48.402 56.3569 48.8043 56.9736 48.7979C57.3503 48.7979 57.5323 48.7263 57.8115 48.4668C58.0776 48.2204 58.1816 47.9933 58.1816 47.6367C58.1751 47.1437 57.8763 46.6239 57.5127 46.4941C57.4609 46.4746 57.4867 46.4103 57.584 46.3066C58.032 45.8201 57.7919 45.0676 57.1426 44.9248C56.7271 44.834 56.2333 45.1645 56.1357 45.6055C56.1099 45.7153 56.0584 45.7935 56.0195 45.7812C55.9091 45.7423 55.9538 45.4108 56.0967 45.2227ZM33.7334 46.5469C33.9152 46.3588 34.246 46.3328 34.4668 46.4883C34.6096 46.5856 34.662 46.7734 34.5518 46.7734C34.5193 46.7734 34.4605 46.7277 34.415 46.6758C34.2913 46.527 33.9154 46.5534 33.8311 46.709C33.7143 46.923 33.8118 47.0723 34.2402 47.3447C34.8049 47.7079 34.9541 47.883 34.9541 48.1943C34.9541 48.7003 34.5711 49.0177 34.0127 48.9658C33.6556 48.9269 33.4414 48.7716 33.4414 48.5381V48.376L33.5781 48.5508C33.7729 48.7973 33.9868 48.8685 34.292 48.7842C34.5776 48.7063 34.7402 48.512 34.7402 48.2461C34.7402 47.9672 34.6427 47.8435 34.2207 47.584C33.5716 47.1884 33.4155 46.8582 33.7334 46.5469ZM35.623 46.4492C35.701 46.4492 35.7139 46.6568 35.7139 47.6816C35.7139 48.7456 35.7006 48.9141 35.6162 48.9141C35.5257 48.9136 35.513 48.7505 35.5195 47.6816C35.526 46.6635 35.5452 46.4493 35.623 46.4492ZM36.7656 46.7412C37.0577 46.3715 37.6358 46.2805 38.1162 46.5332C38.3109 46.6369 38.4479 46.7733 38.5518 46.9678C38.6881 47.2208 38.7012 47.338 38.7012 48.084C38.7012 48.7781 38.6879 48.9141 38.6035 48.9141C38.5192 48.914 38.5059 48.7842 38.5059 48.1357C38.5059 47.2536 38.4412 47.0264 38.123 46.7539C37.7269 46.4232 37.0257 46.5792 36.7725 47.0527C36.6881 47.2084 36.6552 47.4679 36.6357 48.084C36.6163 48.7382 36.5907 48.9135 36.5195 48.9141C36.4416 48.9141 36.4287 48.6937 36.4287 47.6816C36.4287 46.6321 36.4413 46.4497 36.5254 46.4492C36.5968 46.4492 36.623 46.5205 36.623 46.6826V46.9229L36.7656 46.7412ZM47.3701 44.8857C47.7143 44.7302 48.3242 44.7302 48.6748 44.8857C49.2332 45.1387 49.6033 45.807 49.5254 46.4492C49.441 47.1303 49.1554 47.4552 47.9541 48.2012L47.1748 48.6875L48.3633 48.707C49.3568 48.72 49.5449 48.7395 49.5449 48.8174C49.5443 48.9014 49.3227 48.9141 48.0391 48.9141C47.1662 48.9141 46.5633 48.8887 46.5967 48.8564C46.6291 48.824 47.0645 48.5447 47.5645 48.2334C48.0644 47.9156 48.5843 47.5784 48.7207 47.4746C49.3765 46.9556 49.5189 46.0531 49.0449 45.4238C48.7268 45.0024 48.2982 44.8536 47.7334 44.9639C47.4478 45.0222 47.3239 45.0934 47.0771 45.3398C46.8241 45.5927 46.753 45.7228 46.6816 46.0146C46.6362 46.2416 46.5711 46.3847 46.5127 46.3848C46.4023 46.3848 46.4089 46.2871 46.5322 45.8721C46.6491 45.4699 47.0065 45.0479 47.3701 44.8857ZM55 46.8711C55 48.6412 54.9867 48.9139 54.9023 48.9141C54.8179 48.9141 54.8047 48.6482 54.8047 46.9355V44.957H54.4805C54.3057 44.957 54.1562 44.9249 54.1553 44.8926C54.1553 44.8537 54.3371 44.8272 54.5771 44.8271H55V46.8711ZM53.5029 45.4854C53.0419 45.0312 52.3207 44.8172 51.7363 44.96C50.2431 45.3299 49.7174 47.192 50.8018 48.2559C51.5745 49.0145 52.7625 49.0141 53.5156 48.2617C53.9441 47.8336 54.0615 47.5419 54.0615 46.874C54.0615 46.1994 53.9445 45.907 53.5029 45.4854ZM43.6963 46.7168C43.4171 46.5481 42.9693 46.542 42.6641 46.7041C42.307 46.8922 42.0597 47.2938 42.0596 47.6699C42.0661 47.9683 42.2223 48.3965 42.3262 48.3965C42.353 48.3955 42.723 48.0461 43.1445 47.625L43.917 46.8525L43.6963 46.7168ZM35.4805 45.6387C35.5259 45.5219 35.7599 45.5089 35.7988 45.6191C35.844 45.7551 35.7725 45.865 35.6494 45.8652C35.5002 45.8652 35.4287 45.7618 35.4805 45.6387ZM65.7793 41.3887H26.1689V39.0537H65.7793V41.3887ZM66.2334 35.875H65.2598V30.9121H63.0518L63.0449 31.7227C63.0449 32.5076 63.032 32.6833 62.9541 33.6045C62.8437 34.8045 62.4803 35.46 61.7207 35.8232L61.3311 36.0049L61.1553 35.6348C60.9346 35.1549 60.9352 35.1285 61.1689 35.0312C61.9737 34.7003 62.1296 34.0447 62.1426 31.0547V30.0361H66.2334V35.875ZM8.12305 30.0039C8.6685 29.8547 9.59742 29.9064 10.1299 30.127C11.2337 30.5746 11.9286 31.5483 12 32.7549C12.0519 33.7083 11.7593 34.5253 11.1426 35.1221C9.63609 36.5882 7.03258 36.16 6.16895 34.3047C5.34443 32.5337 6.25957 30.5294 8.12305 30.0039ZM56.5771 30.0039C57.0576 29.8677 58.0319 29.9135 58.5254 30.1016C59.0319 30.2897 59.6427 30.7695 59.9414 31.2041C60.6231 32.1966 60.6493 33.6306 60 34.6426C59.1819 35.914 57.4155 36.3745 56 35.6807C54.9287 35.1617 54.3439 34.1885 54.3438 32.9561C54.3438 31.5095 55.1813 30.3932 56.5771 30.0039ZM67.7012 31.5352C68.318 30.2961 69.8566 29.6407 71.2656 30.0039C72.2981 30.2764 73.1423 31.1072 73.415 32.1387C73.5188 32.528 73.5319 33.3189 73.4346 33.7275C72.9086 36.011 69.8245 36.7895 68.1816 35.0576C67.305 34.13 67.1103 32.7093 67.7012 31.5352ZM19.415 31.1396C19.415 32.1447 19.4284 32.2422 19.5322 32.2422C20.2397 32.2422 21.1353 32.32 21.3955 32.4043C21.85 32.547 22.2008 32.8065 22.4346 33.1826C22.6163 33.4745 22.6299 33.546 22.6299 34.084C22.6299 34.564 22.6032 34.727 22.4863 34.9346C22.3045 35.2782 22.0447 35.5118 21.6553 35.6934C21.3503 35.8295 21.2331 35.8429 19.8896 35.8623L18.4414 35.8877V30.0361H19.415V31.1396ZM14.5322 30.0498C15.7855 30.0693 15.9025 30.0819 16.2207 30.2246C16.8244 30.497 17.136 31.0288 17.0518 31.6514C16.9998 32.0146 16.8051 32.3329 16.4805 32.5664L16.2275 32.7549L16.4805 32.8848C17.3309 33.3195 17.5448 34.5254 16.8955 35.2324C16.7722 35.3815 16.5132 35.5761 16.3379 35.667C16.0133 35.8421 15.9803 35.8428 14.5977 35.8623L13.1816 35.8818V30.0303L14.5322 30.0498ZM79.4346 30.0498L79.9023 30.0684V32.1641C79.9023 33.3109 79.9151 34.2507 79.9346 34.2529C79.954 34.2529 80.2663 33.8057 80.6299 33.2607C80.987 32.7223 81.6294 31.7686 82.0449 31.1523L82.8047 30.0361H83.7656V35.875H82.792L82.7783 33.7402L82.7598 31.5996L81.3311 33.7207L79.9023 35.8428L79.4277 35.8623L78.9609 35.8818V30.0303L79.4346 30.0498ZM0.973633 32.3721H3.76562V30.0361H4.74023V35.875H3.76562V33.2148H0.973633V35.875H0V30.0361H0.973633V32.3721ZM24.415 35.875H23.4414V30.0361H24.415V35.875ZM29.7402 30.8799H26.8828V32.4365H29.3506V33.2148H26.8828V35.0312H29.7402V35.875H25.9092V30.0361H29.7402V30.8799ZM36.8184 30.4512C36.8184 30.7431 36.7915 30.8735 36.7266 30.8994C36.6794 30.9188 36.3428 30.9385 35.9805 30.9385C35.6233 30.9385 35.2785 30.9378 35.2266 30.9443C35.1425 30.9454 35.1299 31.2666 35.1299 33.4102V35.875H34.2207V30.9443L33.4932 30.9385C33.0908 30.932 32.7143 30.9254 32.6621 30.9189C32.5907 30.9125 32.5579 30.808 32.5449 30.4707L32.5254 30.0361H36.8184V30.4512ZM41.5586 30.8799H38.7012V32.4365H41.1689V33.2148H38.7012V35.0312H41.5586V35.875H37.7266V33.001C37.7266 31.4204 37.7465 30.1053 37.7725 30.082C37.7919 30.0561 38.656 30.0361 39.6885 30.0361H41.5586V30.8799ZM46.8701 30.0361C47.1616 30.0361 47.4014 30.0558 47.4023 30.0752C47.4023 30.1011 47.2335 30.3738 47.0322 30.6787C46.2076 31.9243 45.584 32.891 45.584 32.917C45.5871 32.941 46.0079 33.5941 46.5254 34.376C47.0449 35.1674 47.4668 35.8233 47.4668 35.8428C47.4639 35.862 47.2122 35.875 46.9023 35.875L46.3311 35.8682L45.623 34.7725C45.2334 34.1627 44.902 33.6689 44.876 33.6689C44.8479 33.6725 44.524 34.1579 44.1553 34.7461C43.7866 35.3341 43.4503 35.832 43.4092 35.8486C43.3637 35.8681 43.1096 35.8753 42.8369 35.8623L42.3438 35.8428L43.2852 34.3633L44.2266 32.8848L43.3438 31.4893C42.8643 30.7255 42.4685 30.0846 42.4668 30.0625C42.4668 30.043 42.7205 30.0433 43.0322 30.0498L43.5967 30.0684L44.2266 31.0742C44.5763 31.6243 44.8813 32.0841 44.915 32.0928C44.941 32.0993 45.2728 31.6451 45.6494 31.0742L46.3311 30.0361H46.8701ZM49.415 32.3721H52.207V30.0361H53.1816V35.875H52.207V33.2148H49.415V35.875H48.4414V30.0361H49.415V32.3721ZM77.9863 30.9443H75.6484V35.875H74.6748V30.0361H77.9863V30.9443ZM90 35.875H89.0186L89.0254 33.9092C89.0319 32.8343 89.0318 31.8823 89.0254 31.7949C89.0254 31.6263 88.9541 31.7296 87.084 34.4932L86.1553 35.875H85.2588V30.0361H86.168L86.1816 32.1582L86.2012 34.2852L87.3633 32.5664C88.006 31.6195 88.6483 30.6724 88.7979 30.458L89.0576 30.0684L89.5322 30.0498L90 30.0303V35.875ZM14.6973 33.2695L14.1592 33.2891V34.1904C14.1592 34.8716 14.1782 35.099 14.2432 35.1055C14.7691 35.1314 15.6525 35.0723 15.8213 35.001C16.2302 34.8321 16.4183 34.2352 16.2041 33.7812C16.0028 33.3599 15.645 33.2371 14.6973 33.2695ZM8.94336 30.8203C8.72269 30.8204 8.46975 30.8461 8.37891 30.8721C7.814 31.0472 7.37198 31.4104 7.09277 31.9424C6.93707 32.2406 6.91797 32.3382 6.91797 32.9541C6.91797 33.5442 6.93704 33.6809 7.07324 33.9531C7.27454 34.3618 7.61923 34.7061 8.02832 34.9072C8.29439 35.0369 8.44386 35.0625 8.96289 35.0625C9.50818 35.0625 9.61912 35.0433 9.91113 34.8877C10.3071 34.6802 10.6775 34.2845 10.8594 33.876C10.9698 33.6359 11.002 33.4342 11.002 32.9541C11.0084 32.4029 10.9895 32.2986 10.8271 31.9678C10.4764 31.2543 9.74195 30.8073 8.94336 30.8203ZM57.542 30.8398C57.2693 30.8269 56.9639 30.8396 56.8535 30.8721C56.2821 31.0213 55.7562 31.4822 55.5029 32.04C55.2953 32.5007 55.2753 33.2724 55.457 33.7588C55.6324 34.2259 56.0158 34.6542 56.4639 34.8877C56.7495 35.0434 56.8665 35.0625 57.4053 35.0625C57.9505 35.0625 58.0613 35.0432 58.3467 34.8877C58.7623 34.6671 59.1134 34.3032 59.3018 33.8945C59.5159 33.4273 59.516 32.4806 59.3018 32.0137C58.9706 31.2936 58.3471 30.8788 57.542 30.8398ZM71.3467 31.0078C70.983 30.8456 70.1708 30.7748 69.8721 30.8721C69.3009 31.0602 68.8596 31.4304 68.5869 31.9492C68.4312 32.2409 68.4111 32.3447 68.4111 32.9541C68.4111 33.5703 68.4311 33.6678 68.5869 33.9727C68.8077 34.3878 69.1391 34.712 69.5352 34.9131C69.7883 35.0363 69.9441 35.0625 70.457 35.0625C71.0024 35.0625 71.1131 35.0434 71.4053 34.8877C71.7948 34.6801 72.1711 34.2777 72.3594 33.8691C72.5607 33.441 72.5607 32.4679 72.3594 32.0332C72.1646 31.6051 71.7428 31.1765 71.3467 31.0078ZM19.5605 33.1416C19.4115 33.161 19.4111 33.1811 19.4111 34.1016C19.4111 34.9446 19.4245 35.0355 19.5283 35.042C20.853 35.0874 21.3141 34.9964 21.5674 34.6396C21.7361 34.419 21.7365 33.874 21.5742 33.6016C21.3859 33.2709 21.0933 33.1611 20.3535 33.1416C19.9964 33.1286 19.6385 33.1286 19.5605 33.1416ZM14.8193 30.8145C14.268 30.8145 14.1641 30.8338 14.1445 30.918C14.1315 30.9764 14.1315 31.3595 14.1445 31.7617L14.1641 32.501H14.793C15.7343 32.501 16.105 32.2611 16.1182 31.6387C16.1247 31.0224 15.7999 30.8145 14.8193 30.8145ZM65.7793 26.2734H63.4414V2.33594H28.5059V26.2734H26.1689V0H65.7793V26.2734ZM45.584 21.2783L44.5 21.2656L43.415 21.2461L42.0127 19.1895C41.2465 18.0542 40.0061 16.2249 39.2529 15.1221L37.8896 13.1113L37.8701 17.1914L37.8564 21.2783H35.7139V9.47168L36.8047 9.47852H37.8896L39.3506 11.6191C40.1558 12.7933 41.3961 14.6037 42.1104 15.6416L43.4092 17.5293L43.4287 13.5L43.4414 9.47168H45.584V21.2783ZM56.2334 11.4824H52.9863V21.2783H50.7139V11.4824H47.4668V9.47168H56.2334V11.4824Z" fill="white"/>
</svg>
