<svg width="180" height="54" viewBox="0 0 180 54" xmlns="http://www.w3.org/2000/svg">
<g clip-path="url(#clip0_1069_601)">
<path d="M67.1269 30.308L76.5933 1.01707H65.5298L60.0039 18.3859L59.9106 17.7314V17.0651L59.7241 16.4106V15.756L59.5376 15.195L59.4443 14.5404L59.2578 13.9677L59.0713 13.3132L58.8731 12.7521L58.6865 12.0976L58.4067 11.5249L58.127 10.9638L57.8472 10.4028L57.5674 9.84174L57.1943 9.2807L56.8213 8.70798L56.1567 7.6794L55.4106 6.74434L54.5713 5.89109L53.6269 5.04953L52.6943 4.30148L51.75 3.64694L50.6308 3.07421L49.5933 2.51317L48.4741 1.95213L47.25 1.4846L46.0376 1.11057L44.8135 0.830053L43.601 0.537845L42.2837 0.350832L40.978 0.163819L39.5674 0.0703125H38.1567H36.7578L35.4404 0.163819L33.9365 0.350832L32.5376 0.537845L31.1269 0.830053L29.6347 1.20408L28.2241 1.5781L26.7202 2.04564L25.3212 2.60668L23.8174 3.16772L22.4067 3.83395L20.9145 4.582L19.5039 5.33005L18.0933 6.17161L16.6943 7.11836L15.3769 8.05343L14.0712 9.09369L12.7539 10.1223L11.6347 11.1508L10.4106 12.2846L9.29145 13.4067L8.25389 14.5404L7.32124 15.756L6.37694 16.8781L5.53757 18.1054L4.68653 19.4145L3.94041 20.6417L3.28757 21.8573L2.72798 23.1781L2.06347 24.4872L1.59715 25.7145L1.22409 27.0236L0.757772 28.3443L0.571244 29.5599L0.291451 30.8807L0.0932643 32.1898L0 33.4054V34.6326V35.9417L0.186529 37.169L0.384715 38.2911L0.664508 39.5184L0.944301 40.6404L1.41062 41.7742L1.87694 42.8963L2.43653 43.9249L3.10104 44.9651L3.84715 45.9937L4.5 46.8352L5.35104 47.6885L6.19042 48.4365L7.04145 49.1846L7.97409 49.8508L9 50.5054L10.0376 51.0664L11.0635 51.6275L12.1943 52.0015L13.3135 52.469L14.4443 52.7612L15.6567 53.0417L16.8808 53.3223L18.0933 53.5093L19.4106 53.6028L20.728 53.6963H22.0337L23.351 53.6028L24.75 53.5093L26.0674 53.4158L27.478 53.1353L28.7837 52.9482L30.1943 52.5742L31.5933 52.1885L33.0039 51.721L34.4145 51.2534L35.8135 50.6924L37.1308 50.1314L38.5298 49.4651L39.8472 48.7171L41.2578 47.969V45.7132L40.0337 46.3677L38.9145 46.9288L37.7837 47.408L36.6645 47.8755L35.4404 48.343L34.3212 48.7171L33.0972 48.9976L31.978 49.2781L30.7539 49.5586L29.6347 49.7456L28.5039 49.8508L27.3847 49.9443L26.2539 50.0378H25.1347H24.0039L22.978 49.8508L21.8472 49.7456L20.8212 49.5586L19.7837 49.3716L18.851 49.0911L17.8135 48.7171L16.8808 48.4365L15.9365 47.969L15.0972 47.595L14.2578 47.0223L13.4067 46.5547L12.5674 45.9937L11.8212 45.3391L11.0635 44.5911L10.4106 43.9249L9.85104 43.1768L9.18653 42.3353L8.62694 41.3885L8.16062 40.4534L7.6943 39.5184L7.32124 38.5716L7.04145 37.543L6.84327 36.5145L6.65674 35.3807L6.56347 34.3521L6.47021 33.2184V32.1898L6.56347 31.0677L6.65674 29.934L6.84327 28.9054L7.13472 27.6781L7.41451 26.556L7.78757 25.4339L8.25389 24.3937L8.62694 23.2716L9.18653 22.1378L9.75777 21.0158L10.4106 19.9872L11.0635 18.8534L11.8212 17.8249L12.5674 16.7846L13.5 15.756L14.351 14.821L15.2837 13.7807L16.3212 12.8456L17.3472 11.9106L18.3847 11.0573L19.5039 10.2158L20.728 9.37421L21.8472 8.61447L23.1645 7.86642L24.3769 7.21187L25.601 6.55733L26.8135 5.9846L28.1308 5.51707L29.3433 5.04953L30.6606 4.67551L31.8847 4.30148L33.1904 4.02096L34.4145 3.83395L35.6269 3.64694L36.851 3.44823L38.0635 3.35473H39.2876L40.5 3.44823H41.6308L42.8433 3.64694L43.9741 3.83395L45 4.11447L46.1308 4.39499L47.1567 4.76901L48.1943 5.14304L49.1269 5.61057L50.0712 6.0781L51.0039 6.65083L51.8433 7.21187L52.6943 7.95992L53.4404 8.61447L54.1865 9.37421L54.851 10.2158L55.5039 11.1508L55.9702 11.9106L56.4365 12.6586L56.8213 13.5002L57.1943 14.3417L57.4741 15.195L57.6606 16.0365L57.8472 16.8781L58.0337 17.8249L58.127 18.6664V19.6015L58.2202 20.5482L58.127 21.5768V22.5119L57.9404 23.5521L57.8472 24.4872L57.6606 25.5275L57.4741 26.6495L57.101 27.6781L56.8213 28.8119L56.4365 29.8404L55.9702 30.7872L55.5039 31.8158L55.0376 32.7508L54.4663 33.6976L53.8135 34.6326L53.2539 35.5677L52.5078 36.421L51.75 37.356L51.0039 38.1976L50.0712 39.0508L49.2202 39.8924L48.2876 40.6404L48.7539 40.8275H49.1269L49.5933 40.921L50.0712 41.0145L50.6308 41.108H51.0972H51.5635H52.1231H52.8808H53.6269L54.3731 41.0145L55.0376 40.921L55.5972 40.8275L56.0635 40.6404L56.6231 40.5469L57.101 40.3599L57.6606 40.1729L58.127 39.9859L58.5933 39.7989L59.0713 39.5184L59.5376 39.3314L60.0039 39.0508L60.4702 38.7586L60.8433 38.4781L61.3213 38.1976L61.7876 37.9171L62.1606 37.543L62.5337 37.2625L62.9067 36.8885L63.2798 36.5145L63.6645 36.1288L64.0376 35.7547L64.4106 35.3807L64.6904 34.9132L64.9702 34.5391L65.25 34.0716L65.6231 33.6041L65.8212 33.2184L66.101 32.7508L66.3808 32.2833L66.5674 31.8158L66.7539 31.3482L66.9404 30.7872L67.1269 30.308Z" fill="#919191"/>
<path fill-rule="evenodd" clip-rule="evenodd" d="M113.816 41.1063L113.536 41.0128H112.872L112.312 40.9193L111.659 40.7323L111.1 40.5452L110.528 40.2647L109.129 39.1427L108.372 38.1959L107.812 37.0738L107.625 36.5128L107.532 35.9401L107.346 34.631V34.2569L107.439 33.8829L107.532 33.4037L107.625 33.0297V32.6556L107.719 32.3751V32.0011L107.905 31.7206L114.469 11.2427H125.439L119.715 29.1842L119.528 30.1193L119.622 30.3063V30.5868L119.808 31.1595L120.1 31.7206L120.659 32.2816L121.032 32.4686L121.312 32.5621L121.498 32.6556L121.778 32.7491H121.965L122.536 32.6556H123.096L123.655 32.4686L124.122 32.2816L124.693 32.0946L125.159 31.9076L126.092 31.3466L127.596 29.8388L127.875 29.3712L128.155 28.9972L128.342 28.4362L128.622 27.9569L128.808 27.3024V27.1154L133.973 11.2427H145.036L135.558 40.3582H124.693L125.905 36.4193L125.346 36.8868L124.786 37.4478L124.122 37.9154L123.562 38.3829L122.816 38.7569L121.498 39.5167L120.752 39.8907L119.248 40.4517L117.745 40.8258L116.905 40.9193L116.159 41.0128L115.308 41.1063H113.816ZM100.223 11.2427L100.514 11.3362H101.447L102.1 11.5232L103.23 11.9089L103.79 12.1894L104.256 12.5634L104.723 12.844L105.201 13.3115L105.947 14.2465L106.32 14.8193L106.506 15.2868L106.786 15.9414L106.879 16.5024L107.066 17.8232L106.973 18.1972V18.6647L106.786 19.4128V19.7868L106.693 20.079L106.6 20.453L106.506 20.7336L99.9428 41.1063H88.8793L94.6034 23.1764L94.7899 22.8024V21.7621L94.6967 21.5751L94.6034 21.2946L94.4169 20.9206L93.6591 20.1725L93.4726 20.079L93.2861 19.892L93.0063 19.7868H92.8197L92.5399 19.6933H91.7938L90.663 19.892L90.1034 20.079L89.6371 20.3595L89.1591 20.5466L88.6928 20.8271L88.3197 21.1076L87.8534 21.3881L87.1073 22.1362L86.8159 22.6154L86.4428 22.9894L86.2563 23.4569L85.6967 24.392L85.5102 25.1401V25.2336L85.4169 25.3388L80.4506 41.1063H69.3871L82.2226 0.921875H93.1928L88.5063 16.1284L88.9726 15.5673L89.6371 15.0063L90.1967 14.5388L91.514 13.592L92.8197 12.844L95.8159 11.7219L96.5736 11.6167L97.413 11.4297L98.1591 11.3362L99.0102 11.2427H100.223ZM111.193 50.9712V49.744H114.375V53.6946H113.163V53.3206L112.778 53.5076L112.219 53.6946H112.032L111.752 53.7881H110.715L110.155 53.6946L109.969 53.6011L109.689 53.5076L109.129 53.2271L108.85 53.0401L108.372 52.5725L108.278 52.3738L108.092 52.1868L107.998 51.9063L107.812 51.4388L107.625 50.5037V49.3699L107.719 48.9024L107.905 48.3414L108.092 47.8738L108.185 47.6868L108.372 47.4998L108.465 47.3128L109.036 46.7401L109.223 46.6465L109.502 46.553L109.782 46.366L110.248 46.179H112.125L112.405 46.2725L112.592 46.366L112.872 46.4595L113.07 46.553L113.256 46.7401L113.443 46.8336L113.629 47.0206L113.723 47.2193L113.909 47.4063L114.096 47.7803L114.282 48.3414L112.965 48.6219L112.778 48.0608L112.405 47.6868L111.566 47.4063H110.715L110.528 47.4998L110.248 47.5933L109.875 47.7803L109.409 48.2478L109.223 48.6219L109.129 48.9024V49.1829L109.036 49.3699V50.5037L109.129 50.7842V51.0647L109.316 51.4388L109.502 51.7193L109.596 51.9063L109.782 51.9998L109.875 52.1868L110.248 52.3738L110.528 52.4673H110.715L110.913 52.5725H111.193L111.566 52.4673H112.125L112.405 52.3738L112.778 52.1868L112.965 51.9998L113.163 51.9063V50.9712H111.193ZM99.0918 49.4634L99.185 49.2764L99.4648 48.4349L99.6513 47.9673L99.8495 47.6868L99.9428 47.4998L100.129 47.2193L100.502 46.8336L100.782 46.7401L100.969 46.553L101.155 46.4595L101.528 46.366L101.901 46.179H103.498L103.872 46.366L104.256 46.4595L104.536 46.553L104.909 46.8336L105.189 47.0206L105.375 47.3128L105.842 47.7803L106.028 48.1543L106.122 48.4349L106.308 48.9024V49.2764L106.401 49.5569V50.4102L106.308 50.7842V51.1582L106.122 51.4388L106.028 51.8128L105.842 52.0933L105.655 52.4673L105.189 52.9465L104.909 53.1336L104.629 53.4141L103.125 53.7881H102.379L101.248 53.5076L100.969 53.4141L100.596 53.2271L100.409 52.9465L100.129 52.7595L99.9428 52.4673L99.6513 52.1868L99.4648 51.8128L99.3716 51.5323L99.0918 50.4102V49.4634ZM100.689 50.492L100.782 50.9595L100.969 51.3336L101.062 51.6258L101.622 52.1868L101.901 52.3738L102.1 52.4673H102.286L102.566 52.5608H103.032L103.312 52.4673H103.498L103.778 52.3738L103.965 52.1868L104.151 52.0933L104.256 51.9063L104.443 51.7193L104.816 50.9595L104.909 50.3985V49.4634L104.816 49.0894L104.723 48.7972L104.443 48.2362L103.965 47.7686L103.778 47.6751L103.498 47.5816L103.312 47.4881H102.286L102.006 47.5816L101.622 47.7686L101.155 48.2362L100.875 48.7972L100.782 49.0894L100.689 49.5569V50.492ZM78.0957 53.6829V46.2608H79.3081L82.7822 51.2401V46.2608H84.0995V53.6829H82.7822L79.413 48.8907V53.6829H78.0957ZM70.1216 53.6829V46.2608H71.6254V49.1712H74.9013V46.2608H76.312V53.6829H74.9013V50.492H71.6254V53.6829H70.1216ZM55.584 53.6829V46.2608H60.935V47.4881H56.9946V49.1712H60.6436V50.3985H56.9946V52.4556H61.0283V53.6829H55.584ZM117.453 53.6829V50.5855L114.83 46.2608H116.614L118.199 49.1712L119.89 46.2608H121.58L118.957 50.5855V53.6829H117.453ZM94.0089 53.6829V46.3543H95.5127V52.4556H98.7887V53.6829H94.0089ZM85.5801 49.2647L85.8599 48.4232L86.1397 47.9556L86.233 47.6751L86.606 47.3011L86.7925 47.0089L86.9791 46.8219L87.1656 46.7284L87.3521 46.5414L87.6436 46.4478L88.7627 46.1673H89.6021L90.733 46.4478L91.5723 47.0089L91.8521 47.3011L92.4234 48.1427L92.6099 48.5167L92.8897 49.6388V50.3985L92.6099 51.5206L92.4234 51.8011L92.2368 52.1751L91.8521 52.7478L91.2925 53.1219L91.0127 53.4024L90.733 53.4959L90.3599 53.6829L89.9868 53.7764H88.3897L88.1099 53.6829L87.7368 53.4959L87.3521 53.4024L87.0723 53.2154L86.3262 52.4556L85.9532 51.8946L85.8599 51.5206L85.6734 51.1465L85.5801 50.7725V49.2647ZM87.0723 50.4803L87.1656 50.8543L87.2589 51.1465L87.457 51.5206L87.6436 51.7076L87.7368 51.8946L87.9234 52.0816L88.1099 52.1751L88.2032 52.2686L88.483 52.3621L88.6695 52.4556H88.9493L89.2291 52.5491L89.4156 52.4556H89.707L89.9868 52.3621L90.5464 52.0816L90.6397 51.8946L90.8262 51.7076L91.0127 51.3336L91.106 51.053L91.1993 50.8543L91.3858 49.9193L91.1993 48.9842L90.8262 48.2245L90.6397 48.0375L90.5464 47.8504L89.9868 47.5699L89.707 47.4764H89.4156L89.2291 47.3829L88.9493 47.4764H88.6695L88.483 47.5699L88.2032 47.6634L87.8301 47.8504L87.7368 48.0375L87.5503 48.2245L87.1656 48.9842L87.0723 49.4517V50.4803ZM67.207 51.0414L68.6993 51.5089L68.5127 52.0816L68.4195 52.2686L68.233 52.5491L67.8599 52.9232L67.7666 53.1102L67.4868 53.2972L67.3003 53.3907L67.1138 53.5777L66.8223 53.6712L66.6358 53.7647H66.356L66.0762 53.8582H64.7589L64.0127 53.6712L62.8936 52.9232L62.7071 52.6427L62.5089 52.2686L62.3223 51.9764L62.1358 51.6024L61.856 50.4803V50.0128L61.9493 49.6388V49.253L62.1358 48.505L62.3223 48.131L62.5089 47.8504L62.7071 47.4764L63.1734 47.0089L63.733 46.6349L64.106 46.4362L64.3858 46.3427L64.7589 46.2491H66.2628L67.3936 46.6349L67.6734 46.8219L68.1397 47.2894L68.3262 47.5699L68.6993 48.318L67.1138 48.692L67.0089 48.505L66.9156 48.2245L66.5425 47.8504L66.2628 47.6634L66.0762 47.5699L65.7964 47.4764H65.0503L64.4791 47.7569L64.3858 47.8504L64.1993 47.944L64.106 48.131L63.733 48.505L63.6397 48.692L63.5464 48.9725V49.253L63.3599 49.8258V50.3868L63.4532 50.6673L63.5464 50.8543V51.1349L63.6397 51.4154L63.733 51.6024L64.106 51.9764L64.1993 52.1751L64.3858 52.2686L64.4791 52.3621L64.8638 52.5491H65.0503L65.2368 52.6427H65.4234L65.7964 52.5491H65.983L66.2628 52.3621L66.5425 52.2686L66.9156 51.6959L67.0089 51.4154L67.207 51.0414ZM50.5244 53.7647V47.5699H48.4609V46.3543H54.185V47.5699H52.0283V53.7647H50.5244Z" fill="white"/>
<path fill-rule="evenodd" clip-rule="evenodd" d="M30.5659 23.3703L31.5918 23.1833L32.5361 22.9963L33.2822 22.7157L33.8418 22.6222L36.9428 21.769L37.9688 21.395L38.1553 21.1144L38.2485 20.8339L38.3418 20.4599L38.4351 20.1794V19.7937L38.5283 19.4196L38.4351 19.1391V18.7651L37.689 18.3911L37.3159 18.2976L36.9428 18.1106L36.5698 18.017L36.2783 17.9235L35.9053 17.83H35.5322L34.9726 17.7365H34.4131L33.7485 17.83L33.2822 17.9235L32.7226 18.1106L32.163 18.2041L31.6851 18.3911L31.2187 18.6716L30.8457 18.8586L30.5659 19.1391L29.6333 19.8989L29.1553 20.4599L28.689 21.1144L18.2783 19.9924L18.6631 19.3261L19.1294 18.6716L19.5024 18.2041L19.8755 17.643L20.3418 17.1755L20.7265 16.6963L21.0996 16.3222L21.5659 15.9482L21.939 15.5742L23.3496 14.4521L23.9092 14.0664L24.3755 13.7859L24.8418 13.4119L25.9726 12.8508L26.5322 12.6638L27.0918 12.3833L27.7563 12.1963L28.3159 12.0093L28.9688 11.7287L30.2861 11.53L31.0322 11.343L31.6851 11.2495L32.4428 11.156H33.189L33.9351 11.0625H38.062L39.0996 11.156H39.939L40.8716 11.2495L41.7226 11.343L43.2265 11.53L45.1851 12.1028L45.8496 12.3833L46.9688 13.1313L47.4351 13.5054L48.0063 14.0664L48.3794 14.5456L48.7524 15.1067L49.1255 15.7612L49.4053 16.3222L49.7783 17.643L49.8716 18.3911V20.0859L49.7783 20.4599V20.7404L49.6851 21.0209L49.5918 21.395L49.2188 22.6222L48.7524 24.1183L48.1928 25.7196L47.6216 27.5898L46.9688 29.7521L46.1294 32.1015L45.2783 34.8248L44.3457 37.9222L44.2524 38.2028L44.1592 38.5768V39.243L44.2524 39.5235L44.3457 39.8976V40.1781L44.439 40.3651H33.8418V40.2716L33.6553 40.0846L33.562 39.8041L33.4688 39.617L33.3755 39.3365L33.2822 38.7638V37.9222L33.3755 37.6417V37.2677L33.562 36.9872L32.7226 37.5482L32.0698 38.1093L31.312 38.5768L30.0063 39.243L29.5283 39.43L29.062 39.7106L28.5957 39.8041L27.8496 40.1781L26.9985 40.4586L26.0659 40.6456L25.2265 40.8326L24.2822 41.0196L23.3496 41.1132H20.062L19.4092 41.0196L18.2783 40.8326L17.3457 40.6456L15.8418 39.8976L15.562 39.617L15.2822 39.43L14.7226 38.8573L14.3496 38.2963L14.0698 38.0158L13.9765 37.7352L13.79 37.3612L13.5918 37.0807L13.4053 36.3326L13.312 36.0404L13.2188 35.6664V34.0768L13.312 33.7028V33.2235L13.4985 32.8495L13.6851 31.9144L14.4428 30.4067L14.7226 30.1261L14.9092 29.7521L15.3755 29.0976L16.5063 27.9638L17.1592 27.4963L17.9053 26.9352L18.6631 26.4677L19.5957 26.0937L20.5283 25.6261L21.5659 25.2404L22.7783 24.9599L24.0024 24.5859L25.3198 24.3054L26.812 24.1183L27.4765 23.9313L28.7822 23.7443L29.4351 23.5573L30.5659 23.3703ZM36.3833 26.8417L35.8237 27.1222L35.1592 27.2157L34.5063 27.4963L33.8535 27.5898L33.2006 27.7768L32.6294 27.9755L31.9765 28.1625L31.3237 28.256L30.8574 28.3495L29.1669 28.9106L27.9428 29.2846L27.4765 29.4716L26.3574 30.0326L26.0659 30.2196L25.8794 30.4067L25.5996 30.6054L25.04 31.4469L24.8535 31.6339L24.7602 31.9144L24.6669 32.2885L24.5737 32.569V32.8495L24.6669 33.13V33.4222L24.8535 33.7028L24.9467 33.8898L25.1333 34.1703L25.5063 34.5443L25.7861 34.7313L26.3574 34.9183H26.7304L27.1035 35.0119H27.4765L28.2226 34.9183L29.0737 34.8248L30.1928 34.5443L30.5659 34.3573L30.8574 34.2638L31.2304 34.0768L31.6967 33.7963L32.0698 33.6093L32.5361 33.3287L32.8159 33.0365L33.5737 32.4755L34.1333 31.9144L34.3198 31.5404L35.1592 30.4067L35.3573 30.0326L35.9169 28.63L36.3833 26.8417ZM160.6 23.3703L161.625 23.1716L162.57 22.9846L163.316 22.7041L163.875 22.6106L164.913 22.33L165.939 22.143L166.977 21.769L168.096 21.395L168.189 21.1144L168.375 20.8339L168.469 20.4482V20.1677L168.562 19.7937V19.0456L168.469 18.7651L168.189 18.5781L167.816 18.3911L167.443 18.2976L167.07 18.1106L166.312 17.9235L165.006 17.7248H164.435L163.316 17.9235L162.756 18.1106L162.185 18.2041L161.719 18.4846L161.252 18.6716L160.879 18.9521L160.6 19.1391L160.133 19.5131L159.655 19.9807L159.282 20.4482L158.723 21.1144L148.312 19.9807L148.778 19.3261L149.163 18.6716L149.536 18.2041L149.909 17.6313L150.375 17.1638L150.749 16.6963L151.227 16.3222L152.066 15.4807L152.999 14.7209L153.477 14.4404L153.943 14.0664L154.502 13.7859L154.969 13.4119L156.1 12.8508L156.566 12.6638L157.219 12.3716L157.778 12.1846L159.096 11.8106L159.655 11.6235L160.32 11.53L161.066 11.343L161.812 11.2495L162.477 11.156H163.223L163.969 11.0625H168.189L169.122 11.156H170.066L171.756 11.343L173.249 11.53L174.006 11.717L175.312 12.0911L175.872 12.3716L176.536 12.7573L177.002 13.1313L177.562 13.5989L178.506 14.5339L178.879 15.095L179.159 15.7612L179.439 16.3222L179.625 16.9768L179.812 17.7248L179.905 18.3911L179.999 19.1391L179.905 19.5131V20.0742L179.812 20.7404L179.625 21.395L179.159 22.6106L178.786 24.1183L178.227 25.708L177.655 27.5898L177.002 29.7521L176.256 32.195L175.405 34.8248L174.286 38.2028V39.5119L174.379 39.8041L174.473 40.1781L174.566 40.3651H163.875L163.689 39.8041L163.596 39.6054L163.502 39.3248L163.409 38.7638L163.316 38.2963L163.409 37.9222V37.6417L163.502 37.2677L163.596 36.9872L162.092 38.1093L161.346 38.5768L160.6 38.9508L160.133 39.2313L159.562 39.4183L159.189 39.7106L158.723 39.8041L157.883 40.1781L157.032 40.4586L156.193 40.6456L154.316 41.0196L153.383 41.1132H150.096L149.443 41.0196L148.312 40.8326L147.846 40.7391L147.473 40.6456L147.006 40.4586L146.249 40.0846L145.969 39.8976L145.596 39.6054L145.316 39.4183L145.036 39.1378L144.85 38.8573L144.57 38.5768L143.999 37.7352L143.812 37.3612L143.719 37.0807L143.532 36.695L143.439 36.3209V36.0404L143.252 35.2924V34.0651L143.346 33.6911L143.439 33.2235L143.532 32.8495L143.625 32.382L143.812 31.9144L144.185 31.1547L144.29 30.7807L144.57 30.4067L144.756 30.1261L144.943 29.7521L145.502 29.0976L145.969 28.5248L146.528 27.9638L147.193 27.4963L147.939 26.9352L148.685 26.4677L149.629 26.0937L150.562 25.6145L151.693 25.2404L152.812 24.9599L154.036 24.5859L155.342 24.3054L156.846 24.1183L157.592 23.9313L158.256 23.8378L158.816 23.7443L159.469 23.5573L160.6 23.3703ZM166.51 26.8417L165.857 27.1222L165.193 27.2157L164.54 27.4963L163.98 27.6833L163.316 27.7768L162.01 28.1508L161.357 28.2443L160.6 28.4313L157.51 29.4716L156.764 29.8456L155.913 30.4067L155.447 30.8742L155.074 31.4469L154.98 31.7274L154.887 31.9144L154.794 32.2885L154.701 32.569V33.13L154.887 33.6911L155.074 33.8781L155.167 34.1703L155.353 34.3573L155.633 34.5443L155.82 34.7313L156.379 34.9183L156.764 35.0119H157.603L158.35 34.9183L159.014 34.8248L159.76 34.6378L160.413 34.4508L161.73 33.8781L162.85 33.13L163.409 32.6625L164.353 31.7274L164.727 31.1547L165.1 30.5002L165.473 29.9391L165.752 29.2846L165.951 28.63L166.51 26.8417Z" fill="white"/>
</g>
<defs>
<clipPath id="clip0_1069_601">
<rect width="180" height="54" fill="white"/>
</clipPath>
</defs>
</svg>
