<svg width="1820" height="539" viewBox="0 0 1820 539" fill="none" xmlns="http://www.w3.org/2000/svg">
<rect x="147" y="490" width="49" height="49" fill="#030303"/>
<rect x="98" y="490" width="49" height="49" fill="#030303"/>
<rect x="49" y="490" width="49" height="49" fill="#030303"/>
<rect x="49" y="441" width="49" height="49" fill="#030303"/>
<rect x="588" y="490" width="50" height="49" fill="#030303"/>
<rect x="638" y="490" width="49" height="49" fill="#030303"/>
<rect x="736" y="490" width="49" height="49" fill="#030303"/>
<rect x="785" y="490" width="50" height="49" fill="#030303"/>
<rect x="835" y="490" width="49" height="49" fill="#030303"/>
<rect x="884" y="490" width="49" height="49" fill="#030303"/>
<rect x="933" y="490" width="50" height="49" fill="#030303"/>
<rect x="983" y="490" width="49" height="49" fill="#030303"/>
<rect x="1376" y="490" width="49" height="49" fill="#030303"/>
<rect x="1425" y="490" width="50" height="49" fill="#030303"/>
<rect x="1770" y="490" width="50" height="49" fill="#030303"/>
<rect x="1770" y="441" width="50" height="49" fill="#030303"/>
<rect x="1720" y="490" width="50" height="49" fill="#030303"/>
<rect x="1670" y="490" width="50" height="49" fill="#030303"/>
<rect x="98" y="392" width="49" height="49" fill="#030303"/>
<rect x="294" y="392" width="49" height="49" fill="#030303"/>
<rect x="343" y="392" width="49" height="49" fill="#030303"/>
<rect x="441" y="392" width="49" height="49" fill="#030303"/>
<rect x="490" y="392" width="49" height="49" fill="#030303"/>
<rect x="539" y="392" width="49" height="49" fill="#030303"/>
<rect x="539" y="441" width="49" height="49" fill="#030303"/>
<rect x="588" y="392" width="50" height="49" fill="#030303"/>
<rect x="687" y="392" width="49" height="49" fill="#030303"/>
<rect x="736" y="392" width="49" height="49" fill="#030303"/>
<rect x="884" y="392" width="49" height="49" fill="#030303"/>
<rect x="933" y="392" width="50" height="49" fill="#030303"/>
<rect x="1032" y="392" width="49" height="49" fill="#030303"/>
<rect x="1081" y="392" width="49" height="49" fill="#030303"/>
<rect x="1130" y="392" width="50" height="49" fill="#030303"/>
<rect x="1278" y="392" width="49" height="49" fill="#030303"/>
<rect x="1327" y="392" width="49" height="49" fill="#030303"/>
<rect x="1475" y="392" width="49" height="49" fill="#030303"/>
<rect x="1524" y="392" width="49" height="49" fill="#030303"/>
<rect x="1573" y="392" width="49" height="49" fill="#030303"/>
<rect x="1622" y="392" width="50" height="49" fill="#030303"/>
<rect x="1672" y="392" width="49" height="49" fill="#030303"/>
<rect x="49" y="245" width="49" height="49" fill="#030303"/>
<rect x="98" y="245" width="49" height="49" fill="#030303"/>
<rect x="147" y="245" width="49" height="49" fill="#030303"/>
<rect x="196" y="245" width="49" height="49" fill="#030303"/>
<rect x="245" y="245" width="49" height="49" fill="#030303"/>
<rect x="294" y="245" width="49" height="49" fill="#030303"/>
<rect x="343" y="245" width="49" height="49" fill="#030303"/>
<rect x="392" y="245" width="49" height="49" fill="#030303"/>
<rect x="441" y="245" width="49" height="49" fill="#030303"/>
<rect x="490" y="245" width="49" height="49" fill="#030303"/>
<rect x="539" y="245" width="49" height="49" fill="#030303"/>
<rect x="588" y="245" width="50" height="49" fill="#030303"/>
<rect x="638" y="245" width="49" height="49" fill="#030303"/>
<rect x="687" y="245" width="49" height="49" fill="#030303"/>
<rect x="736" y="245" width="49" height="49" fill="#030303"/>
<rect x="785" y="245" width="50" height="49" fill="#030303"/>
<rect x="835" y="245" width="49" height="49" fill="#030303"/>
<rect x="884" y="245" width="49" height="49" fill="#030303"/>
<rect x="933" y="245" width="50" height="49" fill="#030303"/>
<rect x="983" y="245" width="49" height="49" fill="#030303"/>
<rect x="1032" y="245" width="49" height="49" fill="#030303"/>
<rect x="1081" y="245" width="49" height="49" fill="#030303"/>
<rect x="1130" y="245" width="50" height="49" fill="#030303"/>
<rect x="1180" y="245" width="49" height="49" fill="#030303"/>
<rect x="1229" y="245" width="49" height="49" fill="#030303"/>
<rect x="1278" y="245" width="49" height="49" fill="#030303"/>
<rect x="1327" y="245" width="49" height="49" fill="#030303"/>
<rect x="1376" y="245" width="49" height="49" fill="#030303"/>
<rect x="1425" y="245" width="50" height="49" fill="#030303"/>
<rect x="1475" y="245" width="49" height="49" fill="#030303"/>
<rect x="1524" y="245" width="49" height="49" fill="#030303"/>
<rect x="1573" y="245" width="49" height="49" fill="#030303"/>
<rect x="1622" y="245" width="50" height="49" fill="#030303"/>
<rect x="1672" y="245" width="49" height="49" fill="#030303"/>
<rect x="1721" y="245" width="49" height="49" fill="#030303"/>
<rect x="1770" y="245" width="50" height="49" fill="#030303"/>
<rect y="196" width="49" height="49" fill="#030303"/>
<rect x="49" y="196" width="49" height="49" fill="#030303"/>
<rect x="98" y="196" width="49" height="49" fill="#030303"/>
<rect x="147" y="196" width="49" height="49" fill="#030303"/>
<rect x="196" y="196" width="49" height="49" fill="#030303"/>
<rect x="245" y="196" width="49" height="49" fill="#030303"/>
<rect x="294" y="196" width="49" height="49" fill="#030303"/>
<rect x="343" y="196" width="49" height="49" fill="#030303"/>
<rect x="392" y="196" width="49" height="49" fill="#030303"/>
<rect x="441" y="196" width="49" height="49" fill="#030303"/>
<rect x="490" y="196" width="49" height="49" fill="#030303"/>
<rect x="539" y="196" width="49" height="49" fill="#030303"/>
<rect x="588" y="196" width="50" height="49" fill="#030303"/>
<rect x="638" y="196" width="49" height="49" fill="#030303"/>
<rect x="687" y="196" width="49" height="49" fill="#030303"/>
<rect x="736" y="196" width="49" height="49" fill="#030303"/>
<rect x="785" y="196" width="50" height="49" fill="#030303"/>
<rect x="835" y="196" width="49" height="49" fill="#030303"/>
<rect x="884" y="196" width="49" height="49" fill="#030303"/>
<rect x="933" y="196" width="50" height="49" fill="#030303"/>
<rect x="983" y="196" width="49" height="49" fill="#030303"/>
<rect x="1032" y="196" width="49" height="49" fill="#030303"/>
<rect x="1081" y="196" width="49" height="49" fill="#030303"/>
<rect x="1130" y="196" width="50" height="49" fill="#030303"/>
<rect x="1180" y="196" width="49" height="49" fill="#030303"/>
<rect x="1229" y="196" width="49" height="49" fill="#030303"/>
<rect x="1278" y="196" width="49" height="49" fill="#030303"/>
<rect x="1327" y="196" width="49" height="49" fill="#030303"/>
<rect x="1376" y="196" width="49" height="49" fill="#030303"/>
<rect x="1425" y="196" width="50" height="49" fill="#030303"/>
<rect x="1475" y="196" width="49" height="49" fill="#030303"/>
<rect x="1524" y="196" width="49" height="49" fill="#030303"/>
<rect x="1573" y="196" width="49" height="49" fill="#030303"/>
<rect x="1622" y="196" width="50" height="49" fill="#030303"/>
<rect x="1672" y="196" width="49" height="49" fill="#030303"/>
<rect x="1721" y="196" width="49" height="49" fill="#030303"/>
<rect y="147" width="49" height="49" fill="#030303"/>
<rect x="49" y="147" width="49" height="49" fill="#030303"/>
<rect x="147" y="147" width="49" height="49" fill="#030303"/>
<rect x="245" y="147" width="49" height="49" fill="#030303"/>
<rect x="294" y="147" width="49" height="49" fill="#030303"/>
<rect x="343" y="147" width="49" height="49" fill="#030303"/>
<rect x="392" y="147" width="49" height="49" fill="#030303"/>
<rect x="441" y="147" width="49" height="49" fill="#030303"/>
<rect x="490" y="147" width="49" height="49" fill="#030303"/>
<rect x="539" y="147" width="49" height="49" fill="#030303"/>
<rect x="588" y="147" width="50" height="49" fill="#030303"/>
<rect x="638" y="147" width="49" height="49" fill="#030303"/>
<rect x="687" y="147" width="49" height="49" fill="#030303"/>
<rect x="736" y="147" width="49" height="49" fill="#030303"/>
<rect x="785" y="147" width="50" height="49" fill="#030303"/>
<rect x="835" y="147" width="49" height="49" fill="#030303"/>
<rect x="884" y="147" width="49" height="49" fill="#030303"/>
<rect x="933" y="147" width="50" height="49" fill="#030303"/>
<rect x="983" y="147" width="49" height="49" fill="#030303"/>
<rect x="1032" y="147" width="49" height="49" fill="#030303"/>
<rect x="1081" y="147" width="49" height="49" fill="#030303"/>
<rect x="1130" y="147" width="50" height="49" fill="#030303"/>
<rect x="1180" y="147" width="49" height="49" fill="#030303"/>
<rect x="1229" y="147" width="49" height="49" fill="#030303"/>
<rect x="1278" y="147" width="49" height="49" fill="#030303"/>
<rect x="1327" y="147" width="49" height="49" fill="#030303"/>
<rect x="1376" y="147" width="49" height="49" fill="#030303"/>
<rect x="1425" y="147" width="50" height="49" fill="#030303"/>
<rect x="1475" y="147" width="49" height="49" fill="#030303"/>
<rect x="1524" y="147" width="49" height="49" fill="#030303"/>
<rect x="1573" y="147" width="49" height="49" fill="#030303"/>
<rect x="1672" y="147" width="49" height="49" fill="#030303"/>
<rect x="1721" y="147" width="49" height="49" fill="#030303"/>
<rect x="98" y="98" width="49" height="49" fill="#030303"/>
<rect x="147" y="98" width="49" height="49" fill="#030303"/>
<rect x="196" y="98" width="49" height="49" fill="#030303"/>
<rect x="245" y="98" width="49" height="49" fill="#030303"/>
<rect x="441" y="98" width="49" height="49" fill="#030303"/>
<rect x="490" y="98" width="49" height="49" fill="#030303"/>
<rect x="588" y="98" width="50" height="49" fill="#030303"/>
<rect x="736" y="98" width="49" height="49" fill="#030303"/>
<rect x="785" y="98" width="50" height="49" fill="#030303"/>
<rect x="835" y="98" width="49" height="49" fill="#030303"/>
<rect x="884" y="98" width="49" height="49" fill="#030303"/>
<rect x="933" y="98" width="50" height="49" fill="#030303"/>
<rect x="1032" y="98" width="49" height="49" fill="#030303"/>
<rect x="1130" y="98" width="50" height="49" fill="#030303"/>
<rect x="1229" y="98" width="49" height="49" fill="#030303"/>
<rect x="1278" y="98" width="49" height="49" fill="#030303"/>
<rect x="1327" y="98" width="49" height="49" fill="#030303"/>
<rect x="1425" y="98" width="50" height="49" fill="#030303"/>
<rect x="1524" y="98" width="49" height="49" fill="#030303"/>
<rect x="1573" y="98" width="49" height="49" fill="#030303"/>
<rect x="1622" y="98" width="50" height="49" fill="#030303"/>
<rect x="1672" y="98" width="49" height="49" fill="#030303"/>
<rect x="98" width="49" height="49" fill="#030303"/>
<rect x="392" y="49" width="49" height="49" fill="#030303"/>
<rect x="392" width="49" height="49" fill="#030303"/>
<rect x="441" y="49" width="49" height="49" fill="#030303"/>
<rect x="490" y="49" width="49" height="49" fill="#030303"/>
<rect x="785" y="49" width="50" height="49" fill="#030303"/>
<rect x="835" y="49" width="49" height="49" fill="#030303"/>
<rect x="983" y="49" width="49" height="49" fill="#030303"/>
<rect x="1032" y="49" width="49" height="49" fill="#030303"/>
<rect x="1032" width="49" height="49" fill="#030303"/>
<rect x="1180" y="49" width="49" height="49" fill="#030303"/>
<rect x="1229" y="49" width="49" height="49" fill="#030303"/>
<rect x="1278" y="49" width="49" height="49" fill="#030303"/>
<rect x="1278" width="49" height="49" fill="#030303"/>
<rect x="1327" y="49" width="49" height="49" fill="#030303"/>
<rect x="1376" y="49" width="49" height="49" fill="#030303"/>
<rect x="1425" y="49" width="50" height="49" fill="#030303"/>
<rect x="1475" y="49" width="49" height="49" fill="#030303"/>
<rect x="1573" y="49" width="49" height="49" fill="#030303"/>
<rect x="1622" y="49" width="50" height="49" fill="#030303"/>
<rect x="1672" y="49" width="49" height="49" fill="#030303"/>
<rect x="1672" width="49" height="49" fill="#030303"/>
<rect x="1721" y="49" width="49" height="49" fill="#030303"/>
<rect y="343" width="49" height="49" fill="#030303"/>
<rect x="49" y="343" width="49" height="49" fill="#030303"/>
<rect x="98" y="343" width="49" height="49" fill="#030303"/>
<rect x="196" y="343" width="49" height="49" fill="#030303"/>
<rect x="245" y="343" width="49" height="49" fill="#030303"/>
<rect x="294" y="343" width="49" height="49" fill="#030303"/>
<rect x="343" y="343" width="49" height="49" fill="#030303"/>
<rect x="392" y="343" width="49" height="49" fill="#030303"/>
<rect x="441" y="343" width="49" height="49" fill="#030303"/>
<rect x="490" y="343" width="49" height="49" fill="#030303"/>
<rect x="539" y="343" width="49" height="49" fill="#030303"/>
<rect x="588" y="343" width="50" height="49" fill="#030303"/>
<rect x="638" y="343" width="49" height="49" fill="#030303"/>
<rect x="687" y="343" width="49" height="49" fill="#030303"/>
<rect x="736" y="343" width="49" height="49" fill="#030303"/>
<rect x="785" y="343" width="50" height="49" fill="#030303"/>
<rect x="785" y="343" width="50" height="49" fill="#030303"/>
<rect x="835" y="343" width="49" height="49" fill="#030303"/>
<rect x="884" y="343" width="49" height="49" fill="#030303"/>
<rect x="933" y="343" width="50" height="49" fill="#030303"/>
<rect x="983" y="343" width="49" height="49" fill="#030303"/>
<rect x="1032" y="343" width="49" height="49" fill="#030303"/>
<rect x="1081" y="343" width="49" height="49" fill="#030303"/>
<rect x="1130" y="343" width="50" height="49" fill="#030303"/>
<rect x="1180" y="343" width="49" height="49" fill="#030303"/>
<rect x="1229" y="343" width="49" height="49" fill="#030303"/>
<rect x="1278" y="343" width="49" height="49" fill="#030303"/>
<rect x="1327" y="343" width="49" height="49" fill="#030303"/>
<rect x="1376" y="343" width="49" height="49" fill="#030303"/>
<rect x="1425" y="343" width="50" height="49" fill="#030303"/>
<rect x="1475" y="343" width="49" height="49" fill="#030303"/>
<rect x="1524" y="343" width="49" height="49" fill="#030303"/>
<rect x="1622" y="343" width="50" height="49" fill="#030303"/>
<rect x="1721" y="343" width="49" height="49" fill="#030303"/>
<rect x="1770" y="343" width="50" height="49" fill="#030303"/>
<rect x="147" y="294" width="49" height="49" fill="#030303"/>
<rect x="196" y="294" width="49" height="49" fill="#030303"/>
<rect x="245" y="294" width="49" height="49" fill="#030303"/>
<rect x="294" y="294" width="49" height="49" fill="#030303"/>
<rect x="343" y="294" width="49" height="49" fill="#030303"/>
<rect x="392" y="294" width="49" height="49" fill="#030303"/>
<rect x="441" y="294" width="49" height="49" fill="#030303"/>
<rect x="490" y="294" width="49" height="49" fill="#030303"/>
<rect x="539" y="294" width="49" height="49" fill="#030303"/>
<rect x="588" y="294" width="50" height="49" fill="#030303"/>
<rect x="638" y="294" width="49" height="49" fill="#030303"/>
<rect x="687" y="294" width="49" height="49" fill="#030303"/>
<rect x="736" y="294" width="49" height="49" fill="#030303"/>
<rect x="785" y="294" width="50" height="49" fill="#030303"/>
<rect x="835" y="294" width="49" height="49" fill="#030303"/>
<rect x="884" y="294" width="49" height="49" fill="#030303"/>
<rect x="933" y="294" width="50" height="49" fill="#030303"/>
<rect x="983" y="294" width="49" height="49" fill="#030303"/>
<rect x="1032" y="294" width="49" height="49" fill="#030303"/>
<rect x="1081" y="294" width="49" height="49" fill="#030303"/>
<rect x="1130" y="294" width="50" height="49" fill="#030303"/>
<rect x="1180" y="294" width="49" height="49" fill="#030303"/>
<rect x="1229" y="294" width="49" height="49" fill="#030303"/>
<rect x="1278" y="294" width="49" height="49" fill="#030303"/>
<rect x="1327" y="294" width="49" height="49" fill="#030303"/>
<rect x="1376" y="294" width="49" height="49" fill="#030303"/>
<rect x="1425" y="294" width="50" height="49" fill="#030303"/>
<rect x="1475" y="294" width="49" height="49" fill="#030303"/>
<rect x="1622" y="294" width="50" height="49" fill="#030303"/>
<rect x="1672" y="294" width="49" height="49" fill="#030303"/>
<rect x="1770" y="294" width="50" height="49" fill="#030303"/>
</svg>
