<svg width="728" height="272" viewBox="0 0 728 272" fill="none" xmlns="http://www.w3.org/2000/svg">
<rect y="181" width="30" height="30" fill="#030303"/>
<rect y="90" width="30" height="30" fill="#030303"/>
<rect x="30" y="242" width="31" height="30" fill="#030303"/>
<rect x="30" y="181" width="31" height="30" fill="#030303"/>
<rect x="30" y="151" width="31" height="30" fill="#030303"/>
<rect x="30" y="90" width="31" height="30" fill="#030303"/>
<rect x="30" y="60" width="31" height="30" fill="#030303"/>
<rect x="30" width="31" height="30" fill="#030303"/>
<rect x="61" y="211" width="30" height="31" fill="#030303"/>
<rect x="61" y="181" width="30" height="30" fill="#030303"/>
<rect x="61" y="151" width="30" height="30" fill="#030303"/>
<rect x="61" y="120" width="30" height="31" fill="#030303"/>
<rect x="61" y="90" width="30" height="30" fill="#030303"/>
<rect x="61" y="60" width="30" height="30" fill="#030303"/>
<rect x="91" y="242" width="30" height="30" fill="#030303"/>
<rect x="91" y="211" width="30" height="31" fill="#030303"/>
<rect x="91" y="181" width="30" height="30" fill="#030303"/>
<rect x="91" y="151" width="30" height="30" fill="#030303"/>
<rect x="91" y="120" width="30" height="31" fill="#030303"/>
<rect x="91" y="90" width="30" height="30" fill="#030303"/>
<rect x="121" y="242" width="31" height="30" fill="#030303"/>
<rect x="121" y="211" width="31" height="31" fill="#030303"/>
<rect x="121" y="181" width="31" height="30" fill="#030303"/>
<rect x="121" y="151" width="31" height="30" fill="#030303"/>
<rect x="121" y="120" width="31" height="31" fill="#030303"/>
<rect x="121" y="90" width="31" height="30" fill="#030303"/>
<rect x="121" y="60" width="31" height="30" fill="#030303"/>
<rect x="152" y="211" width="30" height="31" fill="#030303"/>
<rect x="152" y="181" width="30" height="30" fill="#030303"/>
<rect x="152" y="151" width="30" height="30" fill="#030303"/>
<rect x="152" y="120" width="30" height="31" fill="#030303"/>
<rect x="152" y="90" width="30" height="30" fill="#030303"/>
<rect x="182" y="211" width="30" height="31" fill="#030303"/>
<rect x="182" y="181" width="30" height="30" fill="#030303"/>
<rect x="182" y="151" width="30" height="30" fill="#030303"/>
<rect x="182" y="120" width="30" height="31" fill="#030303"/>
<rect x="182" y="90" width="30" height="30" fill="#030303"/>
<rect x="182" y="60" width="30" height="30" fill="#030303"/>
<rect x="212" y="211" width="31" height="31" fill="#030303"/>
<rect x="212" y="181" width="31" height="30" fill="#030303"/>
<rect x="212" y="151" width="31" height="30" fill="#030303"/>
<rect x="212" y="120" width="31" height="31" fill="#030303"/>
<rect x="212" y="90" width="31" height="30" fill="#030303"/>
<rect x="212" y="60" width="31" height="30" fill="#030303"/>
<rect x="212" width="31" height="30" fill="#030303"/>
<rect x="243" y="211" width="30" height="31" fill="#030303"/>
<rect x="243" y="181" width="30" height="30" fill="#030303"/>
<rect x="243" y="151" width="30" height="30" fill="#030303"/>
<rect x="243" y="120" width="30" height="31" fill="#030303"/>
<rect x="243" y="90" width="30" height="30" fill="#030303"/>
<rect x="243" y="60" width="30" height="30" fill="#030303"/>
<rect x="243" y="30" width="30" height="30" fill="#030303"/>
<rect x="273" y="181" width="30" height="30" fill="#030303"/>
<rect x="273" y="151" width="30" height="30" fill="#030303"/>
<rect x="273" y="120" width="30" height="31" fill="#030303"/>
<rect x="273" y="90" width="30" height="30" fill="#030303"/>
<rect x="273" y="30" width="30" height="30" fill="#030303"/>
<rect x="303" y="211" width="31" height="31" fill="#030303"/>
<rect x="303" y="181" width="31" height="30" fill="#030303"/>
<rect x="303" y="151" width="31" height="30" fill="#030303"/>
<rect x="303" y="120" width="31" height="31" fill="#030303"/>
<rect x="303" y="90" width="31" height="30" fill="#030303"/>
<rect x="303" y="30" width="31" height="30" fill="#030303"/>
<rect x="303" width="31" height="30" fill="#030303"/>
<rect x="334" y="242" width="30" height="30" fill="#030303"/>
<rect x="334" y="211" width="30" height="31" fill="#030303"/>
<rect x="334" y="181" width="30" height="30" fill="#030303"/>
<rect x="334" y="151" width="30" height="30" fill="#030303"/>
<rect x="334" y="120" width="30" height="31" fill="#030303"/>
<rect x="334" y="90" width="30" height="30" fill="#030303"/>
<rect x="334" y="60" width="30" height="30" fill="#030303"/>
<rect x="334" y="30" width="30" height="30" fill="#030303"/>
<rect x="364" y="211" width="30" height="31" fill="#030303"/>
<rect x="364" y="181" width="30" height="30" fill="#030303"/>
<rect x="364" y="151" width="30" height="30" fill="#030303"/>
<rect x="364" y="120" width="30" height="31" fill="#030303"/>
<rect x="364" y="90" width="30" height="30" fill="#030303"/>
<rect x="364" y="60" width="30" height="30" fill="#030303"/>
<rect x="394" y="242" width="31" height="30" fill="#030303"/>
<rect x="394" y="181" width="31" height="30" fill="#030303"/>
<rect x="394" y="151" width="31" height="30" fill="#030303"/>
<rect x="394" y="120" width="31" height="31" fill="#030303"/>
<rect x="394" y="90" width="31" height="30" fill="#030303"/>
<rect x="394" y="60" width="31" height="30" fill="#030303"/>
<rect x="425" y="242" width="30" height="30" fill="#030303"/>
<rect x="425" y="181" width="30" height="30" fill="#030303"/>
<rect x="425" y="151" width="30" height="30" fill="#030303"/>
<rect x="425" y="120" width="30" height="31" fill="#030303"/>
<rect x="425" y="90" width="30" height="30" fill="#030303"/>
<rect x="425" y="60" width="30" height="30" fill="#030303"/>
<rect x="425" y="30" width="30" height="30" fill="#030303"/>
<rect x="455" y="242" width="30" height="30" fill="#030303"/>
<rect x="455" y="211" width="30" height="31" fill="#030303"/>
<rect x="455" y="181" width="30" height="30" fill="#030303"/>
<rect x="455" y="151" width="30" height="30" fill="#030303"/>
<rect x="455" y="120" width="30" height="31" fill="#030303"/>
<rect x="455" y="90" width="30" height="30" fill="#030303"/>
<rect x="455" y="60" width="30" height="30" fill="#030303"/>
<rect x="455" y="30" width="30" height="30" fill="#030303"/>
<rect x="455" width="30" height="30" fill="#030303"/>
<rect x="485" y="211" width="31" height="31" fill="#030303"/>
<rect x="485" y="181" width="31" height="30" fill="#030303"/>
<rect x="485" y="151" width="31" height="30" fill="#030303"/>
<rect x="485" y="120" width="31" height="31" fill="#030303"/>
<rect x="485" y="90" width="31" height="30" fill="#030303"/>
<rect x="485" y="30" width="31" height="30" fill="#030303"/>
<rect x="516" y="242" width="30" height="30" fill="#030303"/>
<rect x="516" y="181" width="30" height="30" fill="#030303"/>
<rect x="516" y="151" width="30" height="30" fill="#030303"/>
<rect x="516" y="120" width="30" height="31" fill="#030303"/>
<rect x="516" y="90" width="30" height="30" fill="#030303"/>
<rect x="516" y="60" width="30" height="30" fill="#030303"/>
<rect x="546" y="242" width="30" height="30" fill="#030303"/>
<rect x="546" y="211" width="30" height="31" fill="#030303"/>
<rect x="546" y="181" width="30" height="30" fill="#030303"/>
<rect x="546" y="151" width="30" height="30" fill="#030303"/>
<rect x="546" y="120" width="30" height="31" fill="#030303"/>
<rect x="546" y="90" width="30" height="30" fill="#030303"/>
<rect x="576" y="211" width="31" height="31" fill="#030303"/>
<rect x="576" y="181" width="31" height="30" fill="#030303"/>
<rect x="576" y="151" width="31" height="30" fill="#030303"/>
<rect x="576" y="120" width="31" height="31" fill="#030303"/>
<rect x="576" y="90" width="31" height="30" fill="#030303"/>
<rect x="576" y="60" width="31" height="30" fill="#030303"/>
<rect x="607" y="181" width="30" height="30" fill="#030303"/>
<rect x="607" y="151" width="30" height="30" fill="#030303"/>
<rect x="607" y="120" width="30" height="31" fill="#030303"/>
<rect x="607" y="90" width="30" height="30" fill="#030303"/>
<rect x="607" y="60" width="30" height="30" fill="#030303"/>
<rect x="607" y="30" width="30" height="30" fill="#030303"/>
<rect x="607" width="30" height="30" fill="#030303"/>
<rect x="637" y="211" width="30" height="31" fill="#030303"/>
<rect x="637" y="181" width="30" height="30" fill="#030303"/>
<rect x="637" y="151" width="30" height="30" fill="#030303"/>
<rect x="637" y="120" width="30" height="31" fill="#030303"/>
<rect x="637" y="90" width="30" height="30" fill="#030303"/>
<rect x="637" y="30" width="30" height="30" fill="#030303"/>
<rect x="667" y="242" width="31" height="30" fill="#030303"/>
<rect x="667" y="181" width="31" height="30" fill="#030303"/>
<rect x="667" y="120" width="31" height="31" fill="#030303"/>
<rect x="667" y="90" width="31" height="30" fill="#030303"/>
<rect x="667" y="60" width="31" height="30" fill="#030303"/>
<rect x="667" width="31" height="30" fill="#030303"/>
<rect x="698" y="242" width="30" height="30" fill="#030303"/>
<rect x="698" y="211" width="30" height="31" fill="#030303"/>
<rect x="698" y="181" width="30" height="30" fill="#030303"/>
<rect x="698" y="151" width="30" height="30" fill="#030303"/>
<rect x="698" y="120" width="30" height="31" fill="#030303"/>
</svg>
