<svg width="208" height="26" viewBox="0 0 208 26" fill="none" xmlns="http://www.w3.org/2000/svg">
<g clip-path="url(#clip0_4002_8287)">
<path fill-rule="evenodd" clip-rule="evenodd" d="M121.56 0.254184H134.85L133.65 3.46356C132.278 3.46356 124.261 3.46356 122.911 3.46356C121.132 3.48387 120.125 5.65189 121.132 6.9695C122.782 9.49773 125.612 11.2609 127.369 13.8541C131.206 18.9742 127.327 25.6462 121.603 25.6462H107.006L108.206 22.4381C109.578 22.4381 118.388 22.4381 119.717 22.4381C121.496 22.4165 122.482 20.2498 121.56 18.9525C120.103 16.5949 117.508 14.3213 115.709 12.1329C112.129 7.522 115.022 0.339496 121.56 0.254184ZM94.9799 25.6881L104.433 0.27585H111.679L102.226 25.6881C99.653 25.6881 97.5306 25.6881 94.9799 25.6881ZM130.649 25.6881L140.102 0.27585H147.347L137.915 25.6881C135.343 25.6881 133.22 25.6881 130.649 25.6881ZM161.666 0.0212671H166.167C169.961 0.190538 172.255 3.29293 172.469 5.8645C172.512 6.48064 172.49 7.07512 172.426 7.522C172.361 7.81856 172.297 8.09481 172.233 8.39273C171.44 11.6644 170.24 14.9794 168.675 17.9762C166.146 23.2669 160.83 26.0714 155.899 25.9224H151.399C147.604 25.7531 145.31 22.6507 145.117 20.0792C145.075 19.463 145.075 18.8889 145.16 18.4217C145.224 18.1454 145.289 17.8475 145.353 17.551C146.104 14.2779 147.304 10.9643 148.89 7.96752C151.419 2.67679 156.735 -0.127691 161.666 0.0212671ZM156.713 6.73523L151.913 19.6756C151.784 19.9736 151.72 20.3135 151.741 20.6534C151.741 22.0346 152.834 23.1816 154.185 23.2872H154.892C157.571 23.2032 159.823 21.6947 160.787 19.2085L165.567 6.26804C165.696 5.97012 165.76 5.63023 165.738 5.29033C165.738 3.90908 164.645 2.7621 163.274 2.65512H162.609C159.929 2.74043 157.678 4.24898 156.713 6.73523ZM97.209 0.27585H101.476L84.9918 24.6265C84.5635 25.2643 83.856 25.6678 83.0404 25.7098C83.0199 25.7098 82.8269 25.7098 82.805 25.7098H78.7969L76.7812 0.297517H84.027L85.4201 17.7419L97.209 0.27585ZM180.078 8.15845L173.541 25.6678H169.811L179.307 0.254184H184.044L190.882 17.4237L197.291 0.254184H201.042L191.547 25.6678H188.117C187.173 25.6245 186.359 25.03 185.995 24.2013L180.1 8.47804L180.078 8.15845Z" fill="white"/>
<path fill-rule="evenodd" clip-rule="evenodd" d="M29.6233 25.684L39.0983 0.271667H46.7929L37.3398 25.684C34.7672 25.684 32.1959 25.684 29.6233 25.684ZM22.7634 10.046L26.4075 0.25H34.1035L25.2293 24.1118C25.2293 24.1118 25.2293 24.1334 25.2074 24.1334C24.8434 25.0258 23.9854 25.642 22.9564 25.6636C20.942 25.6636 18.9483 25.6636 16.9339 25.6636L21.4566 13.51H12.3032L7.78057 25.6636C5.20794 25.6636 2.6572 25.6636 0.0859375 25.6636L9.53899 0.25H17.2336L13.5895 10.046H22.7634ZM68.6575 0.25H74.4022L61.5623 10.0244L69.7071 25.6636H63.1702C63.1907 25.6636 63.2126 25.6636 63.2345 25.642C62.2259 25.7056 61.305 25.1328 60.8767 24.2824C60.8767 24.2824 60.8767 24.2607 60.8548 24.2607V24.2824L55.7533 14.466L53.8238 15.9312L50.2016 25.684C47.629 25.684 45.0564 25.684 42.5056 25.684L51.9587 0.271667H59.6547L56.0954 9.81177L68.6575 0.25Z" fill="#7B7B7B"/>
<path fill-rule="evenodd" clip-rule="evenodd" d="M203.852 1.25H205.288C205.588 1.25 205.803 1.27031 205.952 1.33531C206.103 1.39896 206.231 1.50458 206.317 1.63187C206.402 1.78083 206.446 1.95146 206.446 2.12073C206.446 2.355 206.382 2.54594 206.231 2.6949C206.081 2.84385 205.845 2.94948 205.546 2.99146C205.652 3.05646 205.739 3.09844 205.803 3.16208C205.932 3.26771 206.038 3.41667 206.167 3.58729L206.724 4.45802H206.189L205.759 3.77823C205.631 3.58729 205.524 3.43833 205.438 3.33135C205.353 3.22573 205.288 3.16208 205.224 3.1201C205.16 3.07677 205.095 3.05646 205.031 3.03479C204.987 3.03479 204.903 3.01312 204.794 3.01312H204.28V4.45802H203.852V1.25ZM204.28 2.67323H205.202C205.395 2.67323 205.546 2.65156 205.674 2.60958C205.781 2.5676 205.867 2.50396 205.932 2.41865C205.996 2.33333 206.016 2.22771 206.016 2.12073C206.016 1.97177 205.952 1.84448 205.845 1.73885C205.739 1.63187 205.566 1.5899 205.309 1.5899H204.28V2.67323Z" fill="white"/>
<path fill-rule="evenodd" clip-rule="evenodd" d="M207.969 2.91271C207.969 4.42125 206.725 5.65354 205.203 5.65354C203.681 5.65354 202.438 4.42125 202.438 2.91271C202.438 1.40417 203.681 0.171875 205.203 0.171875C206.725 0.171875 207.969 1.40417 207.969 2.91271ZM207.647 2.91271C207.647 1.57344 206.554 0.490104 205.203 0.490104C203.852 0.490104 202.759 1.57344 202.759 2.91271C202.759 4.25063 203.852 5.33396 205.203 5.33396C206.554 5.33396 207.647 4.25063 207.647 2.91271Z" fill="white"/>
</g>
<defs>
<clipPath id="clip0_4002_8287">
<rect width="208" height="26" fill="white"/>
</clipPath>
</defs>
</svg>
